<svg width="1584" height="396" viewBox="0 0 1584 396" fill="none" xmlns="http://www.w3.org/2000/svg">
<rect width="1584" height="396" fill="#F5F5F5"/>
<g id="Awesome banner" clip-path="url(#clip0_0_1)">
<rect width="1584" height="396" fill="url(#paint0_linear_0_1)"/>
<ellipse id="Ellipse 2" cx="323" cy="64" rx="285" ry="288" fill="url(#paint1_linear_0_1)" fill-opacity="0.1"/>
<g id="copyright">
<path d="M75.95 334.52L72.30 334.52L72.30 311.16L77.20 311.16L83.70 330.04Q83.60 329.02 83.50 327.62Q83.41 326.23 83.33 324.79Q83.25 323.35 83.25 322.23L83.25 311.16L86.90 311.16L86.90 334.52L82 334.52L75.57 315.64Q75.63 316.57 75.73 317.88Q75.82 319.19 75.89 320.57Q75.95 321.94 75.95 323.10L75.95 334.52M98.80 334.84Q96.46 334.84 94.67 333.96Q92.88 333.08 91.89 331.53Q90.90 329.98 90.90 327.93Q90.90 325.78 92.13 324.18Q93.36 322.58 95.34 322.17L95.34 322.10Q93.65 321.75 92.61 320.38Q91.57 319 91.57 317.11Q91.57 315.26 92.48 313.85Q93.39 312.44 95.02 311.64Q96.66 310.84 98.80 310.84Q100.94 310.84 102.59 311.64Q104.24 312.44 105.15 313.85Q106.06 315.26 106.06 317.11Q106.06 319 105.01 320.38Q103.95 321.75 102.26 322.10L102.26 322.17Q104.24 322.58 105.47 324.18Q106.70 325.78 106.70 327.93Q106.70 329.98 105.71 331.53Q104.72 333.08 102.93 333.96Q101.14 334.84 98.80 334.84M98.80 320.73Q100.30 320.73 101.23 319.82Q102.16 318.90 102.16 317.46Q102.16 315.99 101.23 315.08Q100.30 314.17 98.80 314.17Q97.30 314.17 96.37 315.08Q95.44 315.99 95.44 317.46Q95.44 318.90 96.37 319.82Q97.30 320.73 98.80 320.73M98.80 331.45Q100.56 331.45 101.68 330.42Q102.80 329.40 102.80 327.74Q102.80 326.04 101.68 325Q100.56 323.96 98.80 323.96Q97.04 323.96 95.92 325Q94.80 326.04 94.80 327.74Q94.80 329.40 95.92 330.42Q97.04 331.45 98.80 331.45M114.35 334.52L110.70 334.52L110.70 311.16L115.60 311.16L122.10 330.04Q122 329.02 121.90 327.62Q121.81 326.23 121.73 324.79Q121.65 323.35 121.65 322.23L121.65 311.16L125.30 311.16L125.30 334.52L120.40 334.52L113.97 315.64Q114.03 316.57 114.13 317.88Q114.22 319.19 114.29 320.57Q114.35 321.94 114.35 323.10" fill="white" fill-opacity="0.9"/>
<path d="M161.48 325.24L151.24 325.24L151.24 322.68L161.48 322.68" fill="white" fill-opacity="0.9"/>
<path d="M195.02 334.84Q191.82 334.84 189.96 333.05Q188.11 331.26 188.11 328.12L188.11 317.56Q188.11 314.42 189.96 312.63Q191.82 310.84 195.02 310.84Q198.15 310.84 200.01 312.65Q201.87 314.46 201.87 317.56L198.99 317.56Q198.99 315.58 197.95 314.50Q196.91 313.43 195.02 313.43Q193.13 313.43 192.06 314.50Q190.99 315.58 190.99 317.56L190.99 328.12Q190.99 330.10 192.06 331.18Q193.13 332.25 195.02 332.25Q196.91 332.25 197.95 331.18Q198.99 330.10 198.99 328.12L201.87 328.12Q201.87 331.22 200.01 333.03Q198.15 334.84 195.02 334.84" fill="white" fill-opacity="0.9"/>
<path d="M213.96 334.84Q210.83 334.84 209 333.02Q207.18 331.19 207.18 327.80L207.18 317.88Q207.18 314.49 209 312.66Q210.83 310.84 213.96 310.84Q217.10 310.84 218.92 312.66Q220.75 314.49 220.75 317.85L220.75 327.80Q220.75 331.19 218.92 333.02Q217.10 334.84 213.96 334.84M213.96 332.25Q215.85 332.25 216.86 331.18Q217.87 330.10 217.87 328.12L217.87 317.56Q217.87 315.58 216.86 314.50Q215.85 313.43 213.96 313.43Q212.11 313.43 211.08 314.50Q210.06 315.58 210.06 317.56L210.06 328.12Q210.06 330.10 211.08 331.18Q212.11 332.25 213.96 332.25" fill="white" fill-opacity="0.9"/>
<path d="M228.65 334.52L225.87 334.52L225.87 311.16L230.12 311.16L233.10 321.27L236.20 311.16L240.46 311.16L240.46 334.52L237.67 334.52L237.67 323.48Q237.67 321.91 237.72 319.88Q237.77 317.85 237.87 315.77Q237.96 313.69 238.09 312.02L234.31 324.09L231.82 324.09L228.20 312.31Q228.46 314.68 228.55 317.50Q228.65 320.31 228.65 323.48" fill="white" fill-opacity="0.9"/>
<path d="M247.85 334.52L245.07 334.52L245.07 311.16L249.32 311.16L252.30 321.27L255.40 311.16L259.66 311.16L259.66 334.52L256.87 334.52L256.87 323.48Q256.87 321.91 256.92 319.88Q256.97 317.85 257.07 315.77Q257.16 313.69 257.29 312.02L253.51 324.09L251.02 324.09L247.40 312.31Q247.66 314.68 247.75 317.50Q247.85 320.31 247.85 323.48" fill="white" fill-opacity="0.9"/>
<path d="M271.56 334.84Q268.30 334.84 266.57 333.03Q264.84 331.22 264.84 328.12L264.84 311.16L267.72 311.16L267.72 328.12Q267.72 330.04 268.67 331.16Q269.61 332.28 271.56 332.28Q273.48 332.28 274.44 331.16Q275.40 330.04 275.40 328.12L275.40 311.16L278.28 311.16L278.28 328.12Q278.28 331.26 276.57 333.05Q274.86 334.84 271.56 334.84" fill="white" fill-opacity="0.9"/>
<path d="M286.83 334.52L284.04 334.52L284.04 311.16L287.88 311.16L295.02 331.16Q294.95 330.36 294.87 329.19Q294.79 328.02 294.75 326.73Q294.70 325.43 294.70 324.28L294.70 311.16L297.48 311.16L297.48 334.52L293.64 334.52L286.54 314.52Q286.60 315.29 286.67 316.46Q286.73 317.62 286.78 318.92Q286.83 320.22 286.83 321.40" fill="white" fill-opacity="0.9"/>
<path d="M316.20 334.52L303.72 334.52L303.72 331.90L308.49 331.90L308.49 313.78L303.72 313.78L303.72 311.16L316.20 311.16L316.20 313.78L311.43 313.78L311.43 331.90L316.20 331.90" fill="white" fill-opacity="0.9"/>
<path d="M330.60 334.52L327.72 334.52L327.72 313.78L321.32 313.78L321.32 311.16L337 311.16L337 313.78L330.60 313.78" fill="white" fill-opacity="0.9"/>
<path d="M349.80 334.52L346.92 334.52L346.92 325.78L339.88 311.16L342.95 311.16L347.50 320.76Q347.88 321.56 348.11 322.12Q348.33 322.68 348.39 322.94Q348.46 322.68 348.70 322.12Q348.94 321.56 349.32 320.76L353.87 311.16L356.84 311.16L349.80 325.78" fill="white" fill-opacity="0.9"/>
<path d="M382.83 334.52L380.04 334.52L380.04 311.16L383.88 311.16L391.02 331.16Q390.95 330.36 390.87 329.19Q390.79 328.02 390.75 326.73Q390.70 325.43 390.70 324.28L390.70 311.16L393.48 311.16L393.48 334.52L389.64 334.52L382.54 314.52Q382.60 315.29 382.67 316.46Q382.73 317.62 382.78 318.92Q382.83 320.22 382.83 321.40" fill="white" fill-opacity="0.9"/>
<path d="M405.96 334.84Q402.83 334.84 401 333.02Q399.18 331.19 399.18 327.80L399.18 317.88Q399.18 314.49 401 312.66Q402.83 310.84 405.96 310.84Q409.10 310.84 410.92 312.66Q412.75 314.49 412.75 317.85L412.75 327.80Q412.75 331.19 410.92 333.02Q409.10 334.84 405.96 334.84M405.96 332.25Q407.85 332.25 408.86 331.18Q409.87 330.10 409.87 328.12L409.87 317.56Q409.87 315.58 408.86 314.50Q407.85 313.43 405.96 313.43Q404.11 313.43 403.08 314.50Q402.06 315.58 402.06 317.56L402.06 328.12Q402.06 330.10 403.08 331.18Q404.11 332.25 405.96 332.25" fill="white" fill-opacity="0.9"/>
<path d="M424.55 334.52L418.51 334.52L418.51 311.16L424.55 311.16Q426.83 311.16 428.47 312.02Q430.12 312.89 431.03 314.46Q431.95 316.02 431.95 318.17L431.95 327.48Q431.95 329.62 431.03 331.21Q430.12 332.79 428.47 333.66Q426.83 334.52 424.55 334.52M421.39 313.72L421.39 331.96L424.55 331.96Q426.67 331.96 427.87 330.78Q429.07 329.59 429.07 327.48L429.07 318.17Q429.07 316.09 427.87 314.90Q426.67 313.72 424.55 313.72" fill="white" fill-opacity="0.9"/>
<path d="M451.40 334.52L437.96 334.52L437.96 311.16L451.40 311.16L451.40 313.78L440.81 313.78L440.81 321.02L450.28 321.02L450.28 323.58L440.81 323.58L440.81 331.90L451.40 331.90" fill="white" fill-opacity="0.9"/>
<path d="M463.69 334.84Q460.30 334.84 458.28 333.05Q456.27 331.26 456.27 328.12L459.15 328.12Q459.15 330.07 460.39 331.18Q461.64 332.28 463.69 332.28Q465.67 332.28 466.86 331.13Q468.04 329.98 468.04 328.12Q468.04 326.71 467.29 325.67Q466.54 324.63 465.13 324.25L461.58 323.26Q459.37 322.62 458.11 320.97Q456.84 319.32 456.84 317.08Q456.84 315.22 457.67 313.82Q458.51 312.41 460.01 311.62Q461.51 310.84 463.47 310.84Q465.45 310.84 466.97 311.62Q468.49 312.41 469.35 313.80Q470.22 315.19 470.22 317.02L467.34 317.02Q467.34 315.42 466.25 314.41Q465.16 313.40 463.47 313.40Q461.77 313.40 460.71 314.41Q459.66 315.42 459.66 317.02Q459.66 318.30 460.35 319.21Q461.03 320.12 462.28 320.47L465.93 321.50Q468.27 322.14 469.56 323.91Q470.86 325.69 470.86 328.12Q470.86 331.19 468.91 333.02Q466.95 334.84 463.69 334.84" fill="white" fill-opacity="0.9"/>
</g>
<path d="M73.82 197.64L71.73 197.64L71.73 180.12L74.92 180.12L77.15 187.70L79.48 180.12L82.67 180.12L82.67 197.64L80.58 197.64L80.58 189.36Q80.58 188.18 80.62 186.66Q80.66 185.14 80.73 183.58Q80.80 182.02 80.90 180.77L78.06 189.82L76.19 189.82L73.48 180.98Q73.67 182.76 73.74 184.87Q73.82 186.98 73.82 189.36" fill="white" fill-opacity="0.7"/>
<path d="M91.60 197.88Q89.27 197.88 87.84 196.48Q86.42 195.07 86.42 192.60L86.42 189.48Q86.42 187.01 87.84 185.60Q89.27 184.20 91.60 184.20Q93.16 184.20 94.32 184.82Q95.49 185.45 96.14 186.58Q96.78 187.70 96.78 189.24L96.78 191.59L88.53 191.59L88.53 192.84Q88.53 194.30 89.37 195.16Q90.21 196.01 91.60 196.01Q92.80 196.01 93.58 195.54Q94.36 195.07 94.53 194.28L96.69 194.28Q96.47 195.94 95.08 196.91Q93.69 197.88 91.60 197.88M88.53 189.24L88.53 189.91L94.67 189.91L94.67 189.24Q94.67 187.68 93.87 186.83Q93.06 185.98 91.60 185.98Q90.14 185.98 89.33 186.83Q88.53 187.68 88.53 189.24" fill="white" fill-opacity="0.7"/>
<path d="M105.23 197.88Q103.26 197.88 102.08 196.56Q100.89 195.24 100.89 192.98L100.89 189.12Q100.89 186.84 102.06 185.52Q103.24 184.20 105.23 184.20Q106.72 184.20 107.69 184.94Q108.66 185.69 108.86 186.96L108.88 186.96L108.83 183.96L108.83 180.12L110.99 180.12L110.99 197.64L108.83 197.64L108.83 195.12L108.81 195.12Q108.64 196.42 107.68 197.15Q106.72 197.88 105.23 197.88M105.95 196.01Q107.30 196.01 108.06 195.17Q108.83 194.33 108.83 192.84L108.83 189.24Q108.83 187.75 108.06 186.91Q107.30 186.07 105.95 186.07Q104.58 186.07 103.82 186.78Q103.05 187.49 103.05 189.12L103.05 192.96Q103.05 194.57 103.82 195.29Q104.58 196.01 105.95 196.01" fill="white" fill-opacity="0.7"/>
<path d="M126.52 197.64L115.24 197.64L115.24 195.67L119.92 195.67L119.92 186.41L115.72 186.41L115.72 184.44L122.08 184.44L122.08 195.67L126.52 195.67L126.52 197.64M120.76 182.06Q119.97 182.06 119.51 181.66Q119.06 181.25 119.06 180.55Q119.06 179.83 119.51 179.41Q119.97 178.99 120.76 178.99Q121.55 178.99 122.01 179.41Q122.46 179.83 122.46 180.55Q122.46 181.25 122.01 181.66Q121.55 182.06 120.76 182.06" fill="white" fill-opacity="0.7"/>
<path d="M133.65 197.88Q131.61 197.88 130.41 196.74Q129.21 195.60 129.21 193.75Q129.21 192.53 129.76 191.62Q130.31 190.70 131.30 190.19Q132.28 189.67 133.55 189.67L137.63 189.67L137.63 188.64Q137.63 186.07 134.82 186.07Q133.58 186.07 132.81 186.53Q132.04 186.98 131.99 187.80L129.83 187.80Q129.95 186.24 131.28 185.22Q132.62 184.20 134.82 184.20Q137.22 184.20 138.51 185.35Q139.79 186.50 139.79 188.57L139.79 197.64L137.66 197.64L137.66 195.24L137.61 195.24Q137.42 196.46 136.38 197.17Q135.35 197.88 133.65 197.88M134.18 196.06Q135.76 196.06 136.70 195.29Q137.63 194.52 137.63 193.20L137.63 191.35L133.79 191.35Q132.74 191.35 132.08 191.99Q131.42 192.62 131.42 193.68Q131.42 194.78 132.15 195.42Q132.88 196.06 134.18 196.06" fill="white" fill-opacity="0.7"/>
<path d="M159.81 197.64L157.60 197.64L162.16 180.12L165.06 180.12L169.60 197.64L167.42 197.64L166.26 192.98L160.96 192.98L159.81 197.64M162.74 185.74L161.39 191.16L165.81 191.16L164.46 185.76Q164.08 184.22 163.86 183.19Q163.65 182.16 163.60 181.85Q163.55 182.16 163.34 183.19Q163.12 184.22 162.74 185.74" fill="white" fill-opacity="0.7"/>
<path d="M175.17 197.64L173.01 197.64L173.01 180.12L178.65 180.12Q181.10 180.12 182.55 181.52QNaN 182.93 NaN 185.28QNaN 187.63 182.55 189.04Q181.10 190.44 178.65 190.44L175.17 190.44L175.17 197.64M175.17 182.06L175.17 188.50L178.65 188.50Q180.06 188.50 180.92 187.62Q181.77 186.74 181.77 185.28Q181.77 183.79 180.92 182.93Q180.06 182.06 178.65 182.06" fill="white" fill-opacity="0.7"/>
<path d="M197.08 197.64L187.72 197.64L187.72 195.67L191.30 195.67L191.30 182.09L187.72 182.09L187.72 180.12L197.08 180.12L197.08 182.09L193.50 182.09L193.50 195.67L197.08 195.67" fill="white" fill-opacity="0.7"/>
<path d="M221.39 197.88Q218.99 197.88 217.55 196.54Q216.11 195.19 216.11 192.84L216.11 189.24Q216.11 186.89 217.55 185.54Q218.99 184.20 221.39 184.20Q223.67 184.20 225.08 185.42Q226.48 186.65 226.55 188.76L224.39 188.76Q224.32 187.49 223.53 186.80Q222.74 186.12 221.39 186.12Q219.98 186.12 219.12 186.92Q218.27 187.73 218.27 189.22L218.27 192.84Q218.27 194.33 219.12 195.14Q219.98 195.96 221.39 195.96Q222.74 195.96 223.53 195.26Q224.32 194.57 224.39 193.32L226.55 193.32Q226.48 195.43 225.08 196.66Q223.67 197.88 221.39 197.88" fill="white" fill-opacity="0.7"/>
<path d="M234.45 197.88Q232.41 197.88 231.21 196.74Q230.01 195.60 230.01 193.75Q230.01 192.53 230.56 191.62Q231.11 190.70 232.10 190.19Q233.08 189.67 234.35 189.67L238.43 189.67L238.43 188.64Q238.43 186.07 235.62 186.07Q234.38 186.07 233.61 186.53Q232.84 186.98 232.79 187.80L230.63 187.80Q230.75 186.24 232.08 185.22Q233.42 184.20 235.62 184.20Q238.02 184.20 239.31 185.35Q240.59 186.50 240.59 188.57L240.59 197.64L238.46 197.64L238.46 195.24L238.41 195.24Q238.22 196.46 237.18 197.17Q236.15 197.88 234.45 197.88M234.98 196.06Q236.56 196.06 237.50 195.29Q238.43 194.52 238.43 193.20L238.43 191.35L234.59 191.35Q233.54 191.35 232.88 191.99Q232.22 192.62 232.22 193.68Q232.22 194.78 232.95 195.42Q233.68 196.06 234.98 196.06" fill="white" fill-opacity="0.7"/>
<path d="M247.17 197.64L245.01 197.64L245.01 184.44L247.17 184.44L247.17 186.96L247.19 186.96Q247.36 185.64 248.27 184.92Q249.18 184.20 250.70 184.20Q252.69 184.20 253.86 185.42Q255.04 186.65 255.04 188.76L255.04 197.64L252.88 197.64L252.88 189.14Q252.88 187.63 252.12 186.83Q251.37 186.02 250.07 186.02Q248.73 186.02 247.95 186.86Q247.17 187.70 247.17 189.24" fill="white" fill-opacity="0.7"/>
<path d="M279.57 197.88Q278.08 197.88 277.12 197.15Q276.16 196.42 275.99 195.12L275.97 195.12L275.97 197.64L273.81 197.64L273.81 180.12L275.97 180.12L275.97 183.96L275.92 186.96L275.94 186.96Q276.14 185.69 277.11 184.94Q278.08 184.20 279.57 184.20Q281.56 184.20 282.74 185.52Q283.91 186.84 283.91 189.12L283.91 192.98Q283.91 195.24 282.74 196.56Q281.56 197.88 279.57 197.88M278.85 196.01Q280.22 196.01 280.98 195.29Q281.75 194.57 281.75 192.96L281.75 189.12Q281.75 187.49 280.98 186.78Q280.22 186.07 278.85 186.07Q277.53 186.07 276.75 186.91Q275.97 187.75 275.97 189.24L275.97 192.84Q275.97 194.33 276.75 195.17Q277.53 196.01 278.85 196.01" fill="white" fill-opacity="0.7"/>
<path d="M293.20 197.88Q290.87 197.88 289.44 196.48Q288.02 195.07 288.02 192.60L288.02 189.48Q288.02 187.01 289.44 185.60Q290.87 184.20 293.20 184.20Q294.76 184.20 295.92 184.82Q297.09 185.45 297.74 186.58Q298.38 187.70 298.38 189.24L298.38 191.59L290.13 191.59L290.13 192.84Q290.13 194.30 290.97 195.16Q291.81 196.01 293.20 196.01Q294.40 196.01 295.18 195.54Q295.96 195.07 296.13 194.28L298.29 194.28Q298.07 195.94 296.68 196.91Q295.29 197.88 293.20 197.88M290.13 189.24L290.13 189.91L296.27 189.91L296.27 189.24Q296.27 187.68 295.47 186.83Q294.66 185.98 293.20 185.98Q291.74 185.98 290.93 186.83Q290.13 187.68 290.13 189.24" fill="white" fill-opacity="0.7"/>
<path d="M321.98 197.88Q319.70 197.88 318.33 196.52Q316.96 195.17 316.96 192.84L316.96 184.44L319.12 184.44L319.12 192.84Q319.12 194.28 319.89 195.13Q320.66 195.98 321.98 195.98Q323.32 195.98 324.10 195.13Q324.88 194.28 324.88 192.84L324.88 184.44L327.04 184.44L327.04 192.84Q327.04 195.17 325.65 196.52Q324.26 197.88 321.98 197.88" fill="white" fill-opacity="0.7"/>
<path d="M336.93 197.83L335.87 197.83Q333.66 197.83 332.45 196.84Q331.24 195.84 331.24 194.02L333.40 194.02Q333.40 194.93 334.05 195.44Q334.70 195.96 335.87 195.96L336.93 195.96Q338.13 195.96 338.79 195.43Q339.45 194.90 339.45 193.94Q339.45 192.24 337.89 192.02L334.24 191.50Q332.90 191.30 332.15 190.38Q331.41 189.46 331.41 187.94Q331.41 186.22 332.60 185.23Q333.78 184.25 335.87 184.25L336.93 184.25Q338.85 184.25 340.06 185.20Q341.27 186.14 341.37 187.68L339.18 187.68Q339.14 186.98 338.52 186.53Q337.91 186.07 336.93 186.07L335.87 186.07Q334.77 186.07 334.14 186.58Q333.52 187.08 333.52 187.94Q333.52 189.34 334.79 189.53L338.20 190.01Q341.56 190.49 341.56 193.94Q341.56 195.79 340.35 196.81Q339.14 197.83 336.93 197.83" fill="white" fill-opacity="0.7"/>
<path d="M350.80 197.88Q348.47 197.88 347.04 196.48Q345.62 195.07 345.62 192.60L345.62 189.48Q345.62 187.01 347.04 185.60Q348.47 184.20 350.80 184.20Q352.36 184.20 353.52 184.82Q354.69 185.45 355.34 186.58Q355.98 187.70 355.98 189.24L355.98 191.59L347.73 191.59L347.73 192.84Q347.73 194.30 348.57 195.16Q349.41 196.01 350.80 196.01Q352 196.01 352.78 195.54Q353.56 195.07 353.73 194.28L355.89 194.28Q355.67 195.94 354.28 196.91Q352.89 197.88 350.80 197.88M347.73 189.24L347.73 189.91L353.87 189.91L353.87 189.24Q353.87 187.68 353.07 186.83Q352.26 185.98 350.80 185.98Q349.34 185.98 348.53 186.83Q347.73 187.68 347.73 189.24" fill="white" fill-opacity="0.7"/>
<path d="M364.43 197.88Q362.46 197.88 361.28 196.56Q360.09 195.24 360.09 192.98L360.09 189.12Q360.09 186.84 361.26 185.52Q362.44 184.20 364.43 184.20Q365.92 184.20 366.89 184.94Q367.86 185.69 368.06 186.96L368.08 186.96L368.03 183.96L368.03 180.12L370.19 180.12L370.19 197.64L368.03 197.64L368.03 195.12L368.01 195.12Q367.84 196.42 366.88 197.15Q365.92 197.88 364.43 197.88M365.15 196.01Q366.50 196.01 367.26 195.17Q368.03 194.33 368.03 192.84L368.03 189.24Q368.03 187.75 367.26 186.91Q366.50 186.07 365.15 186.07Q363.78 186.07 363.02 186.78Q362.25 187.49 362.25 189.12L362.25 192.96Q362.25 194.57 363.02 195.29Q363.78 196.01 365.15 196.01" fill="white" fill-opacity="0.7"/>
<path d="M399.16 197.64L395.32 197.64Q393.69 197.64 392.70 196.69Q391.72 195.74 391.72 194.16L391.72 186.41L387.93 186.41L387.93 184.44L391.72 184.44L391.72 180.72L393.88 180.72L393.88 184.44L399.28 184.44L399.28 186.41L393.88 186.41L393.88 194.16Q393.88 194.83 394.28 195.25Q394.67 195.67 395.32 195.67L399.16 195.67" fill="white" fill-opacity="0.7"/>
<path d="M408.40 197.83Q406.02 197.83 404.62 196.44Q403.22 195.05 403.22 192.55L403.22 189.53Q403.22 187.01 404.61 185.63Q406 184.25 408.40 184.25Q410.80 184.25 412.19 185.63Q413.58 187.01 413.58 189.53L413.58 192.55Q413.58 195.05 412.18 196.44Q410.78 197.83 408.40 197.83M408.40 195.91Q409.82 195.91 410.62 195.12Q411.42 194.33 411.42 192.79L411.42 189.29Q411.42 187.75 410.62 186.96Q409.82 186.17 408.40 186.17Q407.01 186.17 406.19 186.96Q405.38 187.75 405.38 189.29L405.38 192.79Q405.38 194.33 406.19 195.12Q407.01 195.91 408.40 195.91" fill="white" fill-opacity="0.7"/>
<path d="M442.19 201.96L440.03 201.96L440.03 198.12L440.08 195.12L440.01 195.12Q439.84 196.39 438.88 197.14Q437.92 197.88 436.43 197.88Q434.44 197.88 433.26 196.56Q432.09 195.24 432.09 192.96L432.09 189.10Q432.09 186.82 433.28 185.51Q434.46 184.20 436.43 184.20Q437.92 184.20 438.88 184.93Q439.84 185.66 440.01 186.96L440.03 186.96L440.03 184.44L442.19 184.44L442.19 201.96M437.15 196.01Q438.50 196.01 439.26 195.17Q440.03 194.33 440.03 192.84L440.03 189.24Q440.03 187.75 439.26 186.91Q438.50 186.07 437.15 186.07Q435.78 186.07 435.02 186.77Q434.25 187.46 434.25 189L434.25 193.08Q434.25 194.62 435.02 195.31Q435.78 196.01 437.15 196.01" fill="white" fill-opacity="0.7"/>
<path d="M451.58 197.88Q449.30 197.88 447.93 196.52Q446.56 195.17 446.56 192.84L446.56 184.44L448.72 184.44L448.72 192.84Q448.72 194.28 449.49 195.13Q450.26 195.98 451.58 195.98Q452.92 195.98 453.70 195.13Q454.48 194.28 454.48 192.84L454.48 184.44L456.64 184.44L456.64 192.84Q456.64 195.17 455.25 196.52Q453.86 197.88 451.58 197.88" fill="white" fill-opacity="0.7"/>
<path d="M466 197.88Q463.67 197.88 462.24 196.48Q460.82 195.07 460.82 192.60L460.82 189.48Q460.82 187.01 462.24 185.60Q463.67 184.20 466 184.20Q467.56 184.20 468.72 184.82Q469.89 185.45 470.54 186.58Q471.18 187.70 471.18 189.24L471.18 191.59L462.93 191.59L462.93 192.84Q462.93 194.30 463.77 195.16Q464.61 196.01 466 196.01Q467.20 196.01 467.98 195.54Q468.76 195.07 468.93 194.28L471.09 194.28Q470.87 195.94 469.48 196.91Q468.09 197.88 466 197.88M462.93 189.24L462.93 189.91L469.07 189.91L469.07 189.24Q469.07 187.68 468.27 186.83Q467.46 185.98 466 185.98Q464.54 185.98 463.73 186.83Q462.93 187.68 462.93 189.24" fill="white" fill-opacity="0.7"/>
<path d="M478.05 197.64L475.89 197.64L475.89 184.44L478.05 184.44L478.05 186.96L478.10 186.96Q478.26 185.69 479.18 184.94Q480.09 184.20 481.62 184.20Q483.69 184.20 484.80 185.44Q485.92 186.67 485.92 188.95L485.92 190.08L483.76 190.08L483.76 188.95Q483.76 186.07 480.95 186.07Q479.54 186.07 478.79 186.89Q478.05 187.70 478.05 189.24" fill="white" fill-opacity="0.7"/>
<path d="M494.13 201.96L491.87 201.96L493.82 196.82L488.90 184.44L491.22 184.44L494.34 192.60Q494.54 193.08 494.70 193.61Q494.87 194.14 494.94 194.52Q495.02 194.14 495.18 193.61Q495.35 193.08 495.52 192.60L498.42 184.44L500.70 184.44" fill="white" fill-opacity="0.7"/>
<path d="M509.27 201.48L507.04 201.48L508.36 194.14L510.95 194.14" fill="white" fill-opacity="0.7"/>
<path d="M537.23 197.88Q535.26 197.88 534.08 196.56Q532.89 195.24 532.89 192.98L532.89 189.12Q532.89 186.84 534.06 185.52Q535.24 184.20 537.23 184.20Q538.72 184.20 539.69 184.94Q540.66 185.69 540.86 186.96L540.88 186.96L540.83 183.96L540.83 180.12L542.99 180.12L542.99 197.64L540.83 197.64L540.83 195.12L540.81 195.12Q540.64 196.42 539.68 197.15Q538.72 197.88 537.23 197.88M537.95 196.01Q539.30 196.01 540.06 195.17Q540.83 194.33 540.83 192.84L540.83 189.24Q540.83 187.75 540.06 186.91Q539.30 186.07 537.95 186.07Q536.58 186.07 535.82 186.78Q535.05 187.49 535.05 189.12L535.05 192.96Q535.05 194.57 535.82 195.29Q536.58 196.01 537.95 196.01" fill="white" fill-opacity="0.7"/>
<path d="M552.40 197.83Q550.02 197.83 548.62 196.44Q547.22 195.05 547.22 192.55L547.22 189.53Q547.22 187.01 548.61 185.63Q550 184.25 552.40 184.25Q554.80 184.25 556.19 185.63Q557.58 187.01 557.58 189.53L557.58 192.55Q557.58 195.05 556.18 196.44Q554.78 197.83 552.40 197.83M552.40 195.91Q553.82 195.91 554.62 195.12Q555.42 194.33 555.42 192.79L555.42 189.29Q555.42 187.75 554.62 186.96Q553.82 186.17 552.40 186.17Q551.01 186.17 550.19 186.96Q549.38 187.75 549.38 189.29L549.38 192.79Q549.38 194.33 550.19 195.12Q551.01 195.91 552.40 195.91" fill="white" fill-opacity="0.7"/>
<path d="M564.88 197.64L562.50 197.64L560.34 184.44L562.22 184.44L563.56 193.75Q563.63 194.28 563.70 194.92Q563.78 195.55 563.80 195.96Q563.85 195.55 563.91 194.92Q563.97 194.28 564.06 193.75L565.72 184.44L567.88 184.44L569.54 193.75Q569.63 194.28 569.72 194.92Q569.80 195.55 569.82 195.96Q569.87 195.55 569.94 194.92Q570.02 194.28 570.09 193.75L571.48 184.44L573.26 184.44L571 197.64L568.62 197.64L567.11 188.52Q567.02 187.85 566.93 187.09Q566.85 186.34 566.80 185.93Q566.78 186.34 566.68 187.09Q566.58 187.85 566.46 188.52" fill="white" fill-opacity="0.7"/>
<path d="M578.37 197.64L576.21 197.64L576.21 184.44L578.37 184.44L578.37 186.96L578.39 186.96Q578.56 185.64 579.47 184.92Q580.38 184.20 581.90 184.20Q583.89 184.20 585.06 185.42Q586.24 186.65 586.24 188.76L586.24 197.64L584.08 197.64L584.08 189.14Q584.08 187.63 583.32 186.83Q582.57 186.02 581.27 186.02Q579.93 186.02 579.15 186.86Q578.37 187.70 578.37 189.24" fill="white" fill-opacity="0.7"/>
<path d="M601.60 197.64L597.52 197.64Q595.77 197.64 594.72 196.62Q593.68 195.60 593.68 193.92L593.68 182.09L589.12 182.09L589.12 180.12L595.84 180.12L595.84 193.92Q595.84 194.74 596.30 195.20Q596.75 195.67 597.52 195.67L601.60 195.67" fill="white" fill-opacity="0.7"/>
<path d="M610 197.83Q607.62 197.83 606.22 196.44Q604.82 195.05 604.82 192.55L604.82 189.53Q604.82 187.01 606.21 185.63Q607.60 184.25 610 184.25Q612.40 184.25 613.79 185.63Q615.18 187.01 615.18 189.53L615.18 192.55Q615.18 195.05 613.78 196.44Q612.38 197.83 610 197.83M610 195.91Q611.42 195.91 612.22 195.12Q613.02 194.33 613.02 192.79L613.02 189.29Q613.02 187.75 612.22 186.96Q611.42 186.17 610 186.17Q608.61 186.17 607.79 186.96Q606.98 187.75 606.98 189.29L606.98 192.79Q606.98 194.33 607.79 195.12Q608.61 195.91 610 195.91" fill="white" fill-opacity="0.7"/>
<path d="M623.25 197.88Q621.21 197.88 620.01 196.74Q618.81 195.60 618.81 193.75Q618.81 192.53 619.36 191.62Q619.91 190.70 620.90 190.19Q621.88 189.67 623.15 189.67L627.23 189.67L627.23 188.64Q627.23 186.07 624.42 186.07Q623.18 186.07 622.41 186.53Q621.64 186.98 621.59 187.80L619.43 187.80Q619.55 186.24 620.88 185.22Q622.22 184.20 624.42 184.20Q626.82 184.20 628.11 185.35Q629.39 186.50 629.39 188.57L629.39 197.64L627.26 197.64L627.26 195.24L627.21 195.24Q627.02 196.46 625.98 197.17Q624.95 197.88 623.25 197.88M623.78 196.06Q625.36 196.06 626.30 195.29Q627.23 194.52 627.23 193.20L627.23 191.35L623.39 191.35Q622.34 191.35 621.68 191.99Q621.02 192.62 621.02 193.68Q621.02 194.78 621.75 195.42Q622.48 196.06 623.78 196.06" fill="white" fill-opacity="0.7"/>
<path d="M638.03 197.88Q636.06 197.88 634.88 196.56Q633.69 195.24 633.69 192.98L633.69 189.12Q633.69 186.84 634.86 185.52Q636.04 184.20 638.03 184.20Q639.52 184.20 640.49 184.94Q641.46 185.69 641.66 186.96L641.68 186.96L641.63 183.96L641.63 180.12L643.79 180.12L643.79 197.64L641.63 197.64L641.63 195.12L641.61 195.12Q641.44 196.42 640.48 197.15Q639.52 197.88 638.03 197.88M638.75 196.01Q640.10 196.01 640.86 195.17Q641.63 194.33 641.63 192.84L641.63 189.24Q641.63 187.75 640.86 186.91Q640.10 186.07 638.75 186.07Q637.38 186.07 636.62 186.78Q635.85 187.49 635.85 189.12L635.85 192.96Q635.85 194.57 636.62 195.29Q637.38 196.01 638.75 196.01" fill="white" fill-opacity="0.7"/>
<path d="M666.45 197.88Q664.41 197.88 663.21 196.74Q662.01 195.60 662.01 193.75Q662.01 192.53 662.56 191.62Q663.11 190.70 664.10 190.19Q665.08 189.67 666.35 189.67L670.43 189.67L670.43 188.64Q670.43 186.07 667.62 186.07Q666.38 186.07 665.61 186.53Q664.84 186.98 664.79 187.80L662.63 187.80Q662.75 186.24 664.08 185.22Q665.42 184.20 667.62 184.20Q670.02 184.20 671.31 185.35Q672.59 186.50 672.59 188.57L672.59 197.64L670.46 197.64L670.46 195.24L670.41 195.24Q670.22 196.46 669.18 197.17Q668.15 197.88 666.45 197.88M666.98 196.06Q668.56 196.06 669.50 195.29Q670.43 194.52 670.43 193.20L670.43 191.35L666.59 191.35Q665.54 191.35 664.88 191.99Q664.22 192.62 664.22 193.68Q664.22 194.78 664.95 195.42Q665.68 196.06 666.98 196.06" fill="white" fill-opacity="0.7"/>
<path d="M679.17 197.64L677.01 197.64L677.01 184.44L679.17 184.44L679.17 186.96L679.19 186.96Q679.36 185.64 680.27 184.92Q681.18 184.20 682.70 184.20Q684.69 184.20 685.86 185.42Q687.04 186.65 687.04 188.76L687.04 197.64L684.88 197.64L684.88 189.14Q684.88 187.63 684.12 186.83Q683.37 186.02 682.07 186.02Q680.73 186.02 679.95 186.86Q679.17 187.70 679.17 189.24" fill="white" fill-opacity="0.7"/>
<path d="M695.63 197.88Q693.66 197.88 692.48 196.56Q691.29 195.24 691.29 192.98L691.29 189.12Q691.29 186.84 692.46 185.52Q693.64 184.20 695.63 184.20Q697.12 184.20 698.09 184.94Q699.06 185.69 699.26 186.96L699.28 186.96L699.23 183.96L699.23 180.12L701.39 180.12L701.39 197.64L699.23 197.64L699.23 195.12L699.21 195.12Q699.04 196.42 698.08 197.15Q697.12 197.88 695.63 197.88M696.35 196.01Q697.70 196.01 698.46 195.17Q699.23 194.33 699.23 192.84L699.23 189.24Q699.23 187.75 698.46 186.91Q697.70 186.07 696.35 186.07Q694.98 186.07 694.22 186.78Q693.45 187.49 693.45 189.12L693.45 192.96Q693.45 194.57 694.22 195.29Q694.98 196.01 696.35 196.01" fill="white" fill-opacity="0.7"/>
<path d="M724.43 197.88Q722.46 197.88 721.28 196.56Q720.09 195.24 720.09 192.98L720.09 189.12Q720.09 186.84 721.26 185.52Q722.44 184.20 724.43 184.20Q725.92 184.20 726.89 184.94Q727.86 185.69 728.06 186.96L728.08 186.96L728.03 183.96L728.03 180.12L730.19 180.12L730.19 197.64L728.03 197.64L728.03 195.12L728.01 195.12Q727.84 196.42 726.88 197.15Q725.92 197.88 724.43 197.88M725.15 196.01Q726.50 196.01 727.26 195.17Q728.03 194.33 728.03 192.84L728.03 189.24Q728.03 187.75 727.26 186.91Q726.50 186.07 725.15 186.07Q723.78 186.07 723.02 186.78Q722.25 187.49 722.25 189.12L722.25 192.96Q722.25 194.57 723.02 195.29Q723.78 196.01 725.15 196.01" fill="white" fill-opacity="0.7"/>
<path d="M739.60 197.88Q737.27 197.88 735.84 196.48Q734.42 195.07 734.42 192.60L734.42 189.48Q734.42 187.01 735.84 185.60Q737.27 184.20 739.60 184.20Q741.16 184.20 742.32 184.82Q743.49 185.45 744.14 186.58Q744.78 187.70 744.78 189.24L744.78 191.59L736.53 191.59L736.53 192.84Q736.53 194.30 737.37 195.16Q738.21 196.01 739.60 196.01Q740.80 196.01 741.58 195.54Q742.36 195.07 742.53 194.28L744.69 194.28Q744.47 195.94 743.08 196.91Q741.69 197.88 739.60 197.88M736.53 189.24L736.53 189.91L742.67 189.91L742.67 189.24Q742.67 187.68 741.87 186.83Q741.06 185.98 739.60 185.98Q738.14 185.98 737.33 186.83Q736.53 187.68 736.53 189.24" fill="white" fill-opacity="0.7"/>
<path d="M760 197.64L755.92 197.64Q754.17 197.64 753.12 196.62Q752.08 195.60 752.08 193.92L752.08 182.09L747.52 182.09L747.52 180.12L754.24 180.12L754.24 193.92Q754.24 194.74 754.70 195.20Q755.15 195.67 755.92 195.67L760 195.67" fill="white" fill-opacity="0.7"/>
<path d="M768.40 197.88Q766.07 197.88 764.64 196.48Q763.22 195.07 763.22 192.60L763.22 189.48Q763.22 187.01 764.64 185.60Q766.07 184.20 768.40 184.20Q769.96 184.20 771.12 184.82Q772.29 185.45 772.94 186.58Q773.58 187.70 773.58 189.24L773.58 191.59L765.33 191.59L765.33 192.84Q765.33 194.30 766.17 195.16Q767.01 196.01 768.40 196.01Q769.60 196.01 770.38 195.54Q771.16 195.07 771.33 194.28L773.49 194.28Q773.27 195.94 771.88 196.91Q770.49 197.88 768.40 197.88M765.33 189.24L765.33 189.91L771.47 189.91L771.47 189.24Q771.47 187.68 770.67 186.83Q769.86 185.98 768.40 185.98Q766.94 185.98 766.13 186.83Q765.33 187.68 765.33 189.24" fill="white" fill-opacity="0.7"/>
<path d="M787.96 197.64L784.12 197.64Q782.49 197.64 781.50 196.69Q780.52 195.74 780.52 194.16L780.52 186.41L776.73 186.41L776.73 184.44L780.52 184.44L780.52 180.72L782.68 180.72L782.68 184.44L788.08 184.44L788.08 186.41L782.68 186.41L782.68 194.16Q782.68 194.83 783.08 195.25Q783.47 195.67 784.12 195.67L787.96 195.67" fill="white" fill-opacity="0.7"/>
<path d="M797.20 197.88Q794.87 197.88 793.44 196.48Q792.02 195.07 792.02 192.60L792.02 189.48Q792.02 187.01 793.44 185.60Q794.87 184.20 797.20 184.20Q798.76 184.20 799.92 184.82Q801.09 185.45 801.74 186.58Q802.38 187.70 802.38 189.24L802.38 191.59L794.13 191.59L794.13 192.84Q794.13 194.30 794.97 195.16Q795.81 196.01 797.20 196.01Q798.40 196.01 799.18 195.54Q799.96 195.07 800.13 194.28L802.29 194.28Q802.07 195.94 800.68 196.91Q799.29 197.88 797.20 197.88M794.13 189.24L794.13 189.91L800.27 189.91L800.27 189.24Q800.27 187.68 799.47 186.83Q798.66 185.98 797.20 185.98Q795.74 185.98 794.93 186.83Q794.13 187.68 794.13 189.24" fill="white" fill-opacity="0.7"/>
<path d="M822.26 197.64L820.24 197.64L820.24 184.44L822.11 184.44L822.11 186.19L822.16 186.19Q822.28 185.30 822.87 184.75Q823.46 184.20 824.37 184.20Q825.23 184.20 825.83 184.70Q826.43 185.21 826.70 186.07L826.72 186.07Q826.89 185.21 827.48 184.70Q828.06 184.20 828.98 184.20Q830.25 184.20 831 185.15Q831.76 186.10 831.76 187.61L831.76 197.64L829.74 197.64L829.74 187.58Q829.74 186.79 829.36 186.32Q828.98 185.86 828.30 185.86Q827.66 185.86 827.27 186.31Q826.89 186.77 826.89 187.56L826.89 197.64L825.11 197.64L825.11 187.58Q825.11 186.79 824.73 186.32Q824.34 185.86 823.70 185.86Q823.02 185.86 822.64 186.31Q822.26 186.77 822.26 187.56" fill="white" fill-opacity="0.7"/>
<path d="M840.40 197.88Q838.07 197.88 836.64 196.48Q835.22 195.07 835.22 192.60L835.22 189.48Q835.22 187.01 836.64 185.60Q838.07 184.20 840.40 184.20Q841.96 184.20 843.12 184.82Q844.29 185.45 844.94 186.58Q845.58 187.70 845.58 189.24L845.58 191.59L837.33 191.59L837.33 192.84Q837.33 194.30 838.17 195.16Q839.01 196.01 840.40 196.01Q841.60 196.01 842.38 195.54Q843.16 195.07 843.33 194.28L845.49 194.28Q845.27 195.94 843.88 196.91Q842.49 197.88 840.40 197.88M837.33 189.24L837.33 189.91L843.47 189.91L843.47 189.24Q843.47 187.68 842.67 186.83Q841.86 185.98 840.40 185.98Q838.94 185.98 838.13 186.83Q837.33 187.68 837.33 189.24" fill="white" fill-opacity="0.7"/>
<path d="M854.03 197.88Q852.06 197.88 850.88 196.56Q849.69 195.24 849.69 192.98L849.69 189.12Q849.69 186.84 850.86 185.52Q852.04 184.20 854.03 184.20Q855.52 184.20 856.49 184.94Q857.46 185.69 857.66 186.96L857.68 186.96L857.63 183.96L857.63 180.12L859.79 180.12L859.79 197.64L857.63 197.64L857.63 195.12L857.61 195.12Q857.44 196.42 856.48 197.15Q855.52 197.88 854.03 197.88M854.75 196.01Q856.10 196.01 856.86 195.17Q857.63 194.33 857.63 192.84L857.63 189.24Q857.63 187.75 856.86 186.91Q856.10 186.07 854.75 186.07Q853.38 186.07 852.62 186.78Q851.85 187.49 851.85 189.12L851.85 192.96Q851.85 194.57 852.62 195.29Q853.38 196.01 854.75 196.01" fill="white" fill-opacity="0.7"/>
<path d="M875.32 197.64L864.04 197.64L864.04 195.67L868.72 195.67L868.72 186.41L864.52 186.41L864.52 184.44L870.88 184.44L870.88 195.67L875.32 195.67L875.32 197.64M869.56 182.06Q868.77 182.06 868.31 181.66Q867.86 181.25 867.86 180.55Q867.86 179.83 868.31 179.41Q868.77 178.99 869.56 178.99Q870.35 178.99 870.81 179.41Q871.26 179.83 871.26 180.55Q871.26 181.25 870.81 181.66Q870.35 182.06 869.56 182.06" fill="white" fill-opacity="0.7"/>
<path d="M882.45 197.88Q880.41 197.88 879.21 196.74Q878.01 195.60 878.01 193.75Q878.01 192.53 878.56 191.62Q879.11 190.70 880.10 190.19Q881.08 189.67 882.35 189.67L886.43 189.67L886.43 188.64Q886.43 186.07 883.62 186.07Q882.38 186.07 881.61 186.53Q880.84 186.98 880.79 187.80L878.63 187.80Q878.75 186.24 880.08 185.22Q881.42 184.20 883.62 184.20Q886.02 184.20 887.31 185.35Q888.59 186.50 888.59 188.57L888.59 197.64L886.46 197.64L886.46 195.24L886.41 195.24Q886.22 196.46 885.18 197.17Q884.15 197.88 882.45 197.88M882.98 196.06Q884.56 196.06 885.50 195.29Q886.43 194.52 886.43 193.20L886.43 191.35L882.59 191.35Q881.54 191.35 880.88 191.99Q880.22 192.62 880.22 193.68Q880.22 194.78 880.95 195.42Q881.68 196.06 882.98 196.06" fill="white" fill-opacity="0.7"/>
<path d="M918.52 197.64L907.24 197.64L907.24 195.67L911.92 195.67L911.92 186.41L907.72 186.41L907.72 184.44L914.08 184.44L914.08 195.67L918.52 195.67L918.52 197.64M912.76 182.06Q911.97 182.06 911.51 181.66Q911.06 181.25 911.06 180.55Q911.06 179.83 911.51 179.41Q911.97 178.99 912.76 178.99Q913.55 178.99 914.01 179.41Q914.46 179.83 914.46 180.55Q914.46 181.25 914.01 181.66Q913.55 182.06 912.76 182.06" fill="white" fill-opacity="0.7"/>
<path d="M931.96 197.64L928.12 197.64Q926.49 197.64 925.50 196.69Q924.52 195.74 924.52 194.16L924.52 186.41L920.73 186.41L920.73 184.44L924.52 184.44L924.52 180.72L926.68 180.72L926.68 184.44L932.08 184.44L932.08 186.41L926.68 186.41L926.68 194.16Q926.68 194.83 927.08 195.25Q927.47 195.67 928.12 195.67L931.96 195.67" fill="white" fill-opacity="0.7"/>
<path d="M941.20 197.88Q938.87 197.88 937.44 196.48Q936.02 195.07 936.02 192.60L936.02 189.48Q936.02 187.01 937.44 185.60Q938.87 184.20 941.20 184.20Q942.76 184.20 943.92 184.82Q945.09 185.45 945.74 186.58Q946.38 187.70 946.38 189.24L946.38 191.59L938.13 191.59L938.13 192.84Q938.13 194.30 938.97 195.16Q939.81 196.01 941.20 196.01Q942.40 196.01 943.18 195.54Q943.96 195.07 944.13 194.28L946.29 194.28Q946.07 195.94 944.68 196.91Q943.29 197.88 941.20 197.88M938.13 189.24L938.13 189.91L944.27 189.91L944.27 189.24Q944.27 187.68 943.47 186.83Q942.66 185.98 941.20 185.98Q939.74 185.98 938.93 186.83Q938.13 187.68 938.13 189.24" fill="white" fill-opacity="0.7"/>
<path d="M951.86 197.64L949.84 197.64L949.84 184.44L951.71 184.44L951.71 186.19L951.76 186.19Q951.88 185.30 952.47 184.75Q953.06 184.20 953.97 184.20Q954.83 184.20 955.43 184.70Q956.03 185.21 956.30 186.07L956.32 186.07Q956.49 185.21 957.08 184.70Q957.66 184.20 958.58 184.20Q959.85 184.20 960.60 185.15Q961.36 186.10 961.36 187.61L961.36 197.64L959.34 197.64L959.34 187.58Q959.34 186.79 958.96 186.32Q958.58 185.86 957.90 185.86Q957.26 185.86 956.87 186.31Q956.49 186.77 956.49 187.56L956.49 197.64L954.71 197.64L954.71 187.58Q954.71 186.79 954.33 186.32Q953.94 185.86 953.30 185.86Q952.62 185.86 952.24 186.31Q951.86 186.77 951.86 187.56" fill="white" fill-opacity="0.7"/>
<path d="M970.53 197.83L969.47 197.83Q967.26 197.83 966.05 196.84Q964.84 195.84 964.84 194.02L967 194.02Q967 194.93 967.65 195.44Q968.30 195.96 969.47 195.96L970.53 195.96Q971.73 195.96 972.39 195.43Q973.05 194.90 973.05 193.94Q973.05 192.24 971.49 192.02L967.84 191.50Q966.50 191.30 965.75 190.38Q965.01 189.46 965.01 187.94Q965.01 186.22 966.20 185.23Q967.38 184.25 969.47 184.25L970.53 184.25Q972.45 184.25 973.66 185.20Q974.87 186.14 974.97 187.68L972.78 187.68Q972.74 186.98 972.12 186.53Q971.51 186.07 970.53 186.07L969.47 186.07Q968.37 186.07 967.74 186.58Q967.12 187.08 967.12 187.94Q967.12 189.34 968.39 189.53L971.80 190.01Q975.16 190.49 975.16 193.94Q975.16 195.79 973.95 196.81Q972.74 197.83 970.53 197.83" fill="white" fill-opacity="0.7"/>
<path d="M999.33 197.83L998.27 197.83Q996.06 197.83 994.85 196.84Q993.64 195.84 993.64 194.02L995.80 194.02Q995.80 194.93 996.45 195.44Q997.10 195.96 998.27 195.96L999.33 195.96Q1000.53 195.96 1001.19 195.43Q1001.85 194.90 1001.85 193.94Q1001.85 192.24 1000.29 192.02L996.64 191.50Q995.30 191.30 994.55 190.38Q993.81 189.46 993.81 187.94Q993.81 186.22 995 185.23Q996.18 184.25 998.27 184.25L999.33 184.25Q1001.25 184.25 1002.46 185.20Q1003.67 186.14 1003.77 187.68L1001.58 187.68Q1001.54 186.98 1000.92 186.53Q1000.31 186.07 999.33 186.07L998.27 186.07Q997.17 186.07 996.54 186.58Q995.92 187.08 995.92 187.94Q995.92 189.34 997.19 189.53L1000.60 190.01Q1003.96 190.49 1003.96 193.94Q1003.96 195.79 1002.75 196.81Q1001.54 197.83 999.33 197.83" fill="white" fill-opacity="0.7"/>
<path d="M1013.18 197.88Q1010.90 197.88 1009.53 196.52Q1008.16 195.17 1008.16 192.84L1008.16 184.44L1010.32 184.44L1010.32 192.84Q1010.32 194.28 1011.09 195.13Q1011.86 195.98 1013.18 195.98Q1014.52 195.98 1015.30 195.13Q1016.08 194.28 1016.08 192.84L1016.08 184.44L1018.24 184.44L1018.24 192.84Q1018.24 195.17 1016.85 196.52Q1015.46 197.88 1013.18 197.88" fill="white" fill-opacity="0.7"/>
<path d="M1027.79 197.88Q1025.39 197.88 1023.95 196.54Q1022.51 195.19 1022.51 192.84L1022.51 189.24Q1022.51 186.89 1023.95 185.54Q1025.39 184.20 1027.79 184.20Q1030.07 184.20 1031.48 185.42Q1032.88 186.65 1032.95 188.76L1030.79 188.76Q1030.72 187.49 1029.93 186.80Q1029.14 186.12 1027.79 186.12Q1026.38 186.12 1025.52 186.92Q1024.67 187.73 1024.67 189.22L1024.67 192.84Q1024.67 194.33 1025.52 195.14Q1026.38 195.96 1027.79 195.96Q1029.14 195.96 1029.93 195.26Q1030.72 194.57 1030.79 193.32L1032.95 193.32Q1032.88 195.43 1031.48 196.66Q1030.07 197.88 1027.79 197.88" fill="white" fill-opacity="0.7"/>
<path d="M1039.17 197.64L1037.01 197.64L1037.01 180.12L1039.17 180.12L1039.17 186.96L1039.19 186.96Q1039.36 185.64 1040.27 184.92Q1041.18 184.20 1042.70 184.20Q1044.69 184.20 1045.86 185.42Q1047.04 186.65 1047.04 188.76L1047.04 197.64L1044.88 197.64L1044.88 189.12Q1044.88 187.63 1044.12 186.83Q1043.37 186.02 1042.07 186.02Q1040.73 186.02 1039.95 186.86Q1039.17 187.70 1039.17 189.24" fill="white" fill-opacity="0.7"/>
<path d="M1069.65 197.88Q1067.61 197.88 1066.41 196.74Q1065.21 195.60 1065.21 193.75Q1065.21 192.53 1065.76 191.62Q1066.31 190.70 1067.30 190.19Q1068.28 189.67 1069.55 189.67L1073.63 189.67L1073.63 188.64Q1073.63 186.07 1070.82 186.07Q1069.58 186.07 1068.81 186.53Q1068.04 186.98 1067.99 187.80L1065.83 187.80Q1065.95 186.24 1067.28 185.22Q1068.62 184.20 1070.82 184.20Q1073.22 184.20 1074.51 185.35Q1075.79 186.50 1075.79 188.57L1075.79 197.64L1073.66 197.64L1073.66 195.24L1073.61 195.24Q1073.42 196.46 1072.38 197.17Q1071.35 197.88 1069.65 197.88M1070.18 196.06Q1071.76 196.06 1072.70 195.29Q1073.63 194.52 1073.63 193.20L1073.63 191.35L1069.79 191.35Q1068.74 191.35 1068.08 191.99Q1067.42 192.62 1067.42 193.68Q1067.42 194.78 1068.15 195.42Q1068.88 196.06 1070.18 196.06" fill="white" fill-opacity="0.7"/>
<path d="M1085.73 197.83L1084.67 197.83Q1082.46 197.83 1081.25 196.84Q1080.04 195.84 1080.04 194.02L1082.20 194.02Q1082.20 194.93 1082.85 195.44Q1083.50 195.96 1084.67 195.96L1085.73 195.96Q1086.93 195.96 1087.59 195.43Q1088.25 194.90 1088.25 193.94Q1088.25 192.24 1086.69 192.02L1083.04 191.50Q1081.70 191.30 1080.95 190.38Q1080.21 189.46 1080.21 187.94Q1080.21 186.22 1081.40 185.23Q1082.58 184.25 1084.67 184.25L1085.73 184.25Q1087.65 184.25 1088.86 185.20Q1090.07 186.14 1090.17 187.68L1087.98 187.68Q1087.94 186.98 1087.32 186.53Q1086.71 186.07 1085.73 186.07L1084.67 186.07Q1083.57 186.07 1082.94 186.58Q1082.32 187.08 1082.32 187.94Q1082.32 189.34 1083.59 189.53L1087 190.01Q1090.36 190.49 1090.36 193.94Q1090.36 195.79 1089.15 196.81Q1087.94 197.83 1085.73 197.83" fill="white" fill-opacity="0.7"/>
<path d="M76.05 229.88Q74.01 229.88 72.81 228.74Q71.61 227.60 71.61 225.75Q71.61 224.53 72.16 223.62Q72.71 222.70 73.70 222.19Q74.68 221.67 75.95 221.67L80.03 221.67L80.03 220.64Q80.03 218.07 77.22 218.07Q75.98 218.07 75.21 218.53Q74.44 218.98 74.39 219.80L72.23 219.80Q72.35 218.24 73.68 217.22Q75.02 216.20 77.22 216.20Q79.62 216.20 80.91 217.35Q82.19 218.50 82.19 220.57L82.19 229.64L80.06 229.64L80.06 227.24L80.01 227.24Q79.82 228.46 78.78 229.17Q77.75 229.88 76.05 229.88M76.58 228.06Q78.16 228.06 79.10 227.29Q80.03 226.52 80.03 225.20L80.03 223.35L76.19 223.35Q75.14 223.35 74.48 223.99Q73.82 224.62 73.82 225.68Q73.82 226.78 74.55 227.42Q75.28 228.06 76.58 228.06" fill="white" fill-opacity="0.7"/>
<path d="M91.58 229.88Q89.30 229.88 87.93 228.52Q86.56 227.17 86.56 224.84L86.56 216.44L88.72 216.44L88.72 224.84Q88.72 226.28 89.49 227.13Q90.26 227.98 91.58 227.98Q92.92 227.98 93.70 227.13Q94.48 226.28 94.48 224.84L94.48 216.44L96.64 216.44L96.64 224.84Q96.64 227.17 95.25 228.52Q93.86 229.88 91.58 229.88" fill="white" fill-opacity="0.7"/>
<path d="M105.23 229.88Q103.26 229.88 102.08 228.56Q100.89 227.24 100.89 224.98L100.89 221.12Q100.89 218.84 102.06 217.52Q103.24 216.20 105.23 216.20Q106.72 216.20 107.69 216.94Q108.66 217.69 108.86 218.96L108.88 218.96L108.83 215.96L108.83 212.12L110.99 212.12L110.99 229.64L108.83 229.64L108.83 227.12L108.81 227.12Q108.64 228.42 107.68 229.15Q106.72 229.88 105.23 229.88M105.95 228.01Q107.30 228.01 108.06 227.17Q108.83 226.33 108.83 224.84L108.83 221.24Q108.83 219.75 108.06 218.91Q107.30 218.07 105.95 218.07Q104.58 218.07 103.82 218.78Q103.05 219.49 103.05 221.12L103.05 224.96Q103.05 226.57 103.82 227.29Q104.58 228.01 105.95 228.01" fill="white" fill-opacity="0.7"/>
<path d="M126.52 229.64L115.24 229.64L115.24 227.67L119.92 227.67L119.92 218.41L115.72 218.41L115.72 216.44L122.08 216.44L122.08 227.67L126.52 227.67L126.52 229.64M120.76 214.06Q119.97 214.06 119.51 213.66Q119.06 213.25 119.06 212.55Q119.06 211.83 119.51 211.41Q119.97 210.99 120.76 210.99Q121.55 210.99 122.01 211.41Q122.46 211.83 122.46 212.55Q122.46 213.25 122.01 213.66Q121.55 214.06 120.76 214.06" fill="white" fill-opacity="0.7"/>
<path d="M134.80 229.83Q132.42 229.83 131.02 228.44Q129.62 227.05 129.62 224.55L129.62 221.53Q129.62 219.01 131.01 217.63Q132.40 216.25 134.80 216.25Q137.20 216.25 138.59 217.63Q139.98 219.01 139.98 221.53L139.98 224.55Q139.98 227.05 138.58 228.44Q137.18 229.83 134.80 229.83M134.80 227.91Q136.22 227.91 137.02 227.12Q137.82 226.33 137.82 224.79L137.82 221.29Q137.82 219.75 137.02 218.96Q136.22 218.17 134.80 218.17Q133.41 218.17 132.59 218.96Q131.78 219.75 131.78 221.29L131.78 224.79Q131.78 226.33 132.59 227.12Q133.41 227.91 134.80 227.91" fill="white" fill-opacity="0.7"/>
<path d="M163.72 229.64L161.56 229.64L161.56 220.21L157.72 220.21L157.72 218.24L161.56 218.24L161.56 215.48Q161.56 213.92 162.54 213.02Q163.53 212.12 165.26 212.12L169.12 212.12L169.12 214.09L165.26 214.09Q163.72 214.09 163.72 215.48L163.72 218.24L169.12 218.24L169.12 220.21L163.72 220.21" fill="white" fill-opacity="0.7"/>
<path d="M184.12 229.64L172.84 229.64L172.84 227.67L177.52 227.67L177.52 218.41L173.32 218.41L173.32 216.44L179.68 216.44L179.68 227.67L184.12 227.67L184.12 229.64M178.36 214.06Q177.57 214.06 177.11 213.66Q176.66 213.25 176.66 212.55Q176.66 211.83 177.11 211.41Q177.57 210.99 178.36 210.99Q179.15 210.99 179.61 211.41Q180.06 211.83 180.06 212.55Q180.06 213.25 179.61 213.66Q179.15 214.06 178.36 214.06" fill="white" fill-opacity="0.7"/>
<path d="M198.40 229.64L194.32 229.64Q192.57 229.64 191.52 228.62Q190.48 227.60 190.48 225.92L190.48 214.09L185.92 214.09L185.92 212.12L192.64 212.12L192.64 225.92Q192.64 226.74 193.10 227.20Q193.55 227.67 194.32 227.67L198.40 227.67" fill="white" fill-opacity="0.7"/>
<path d="M206.80 229.88Q204.47 229.88 203.04 228.48Q201.62 227.07 201.62 224.60L201.62 221.48Q201.62 219.01 203.04 217.60Q204.47 216.20 206.80 216.20Q208.36 216.20 209.52 216.82Q210.69 217.45 211.34 218.58Q211.98 219.70 211.98 221.24L211.98 223.59L203.73 223.59L203.73 224.84Q203.73 226.30 204.57 227.16Q205.41 228.01 206.80 228.01QNaN 228.01 208.78 227.54Q209.56 227.07 209.73 226.28L211.89 226.28Q211.67 227.94 210.28 228.91Q208.89 229.88 206.80 229.88M203.73 221.24L203.73 221.91L209.87 221.91L209.87 221.24Q209.87 219.68 209.07 218.83Q208.26 217.98 206.80 217.98Q205.34 217.98 204.53 218.83Q203.73 219.68 203.73 221.24" fill="white" fill-opacity="0.7"/>
<path d="M221.73 229.83L220.67 229.83Q218.46 229.83 217.25 228.84Q216.04 227.84 216.04 226.02L218.20 226.02Q218.20 226.93 218.85 227.44Q219.50 227.96 220.67 227.96L221.73 227.96Q222.93 227.96 223.59 227.43Q224.25 226.90 224.25 225.94Q224.25 224.24 222.69 224.02L219.04 223.50Q217.70 223.30 216.95 222.38Q216.21 221.46 216.21 219.94Q216.21 218.22 217.40 217.23Q218.58 216.25 220.67 216.25L221.73 216.25Q223.65 216.25 224.86 217.20Q226.07 218.14 226.17 219.68L223.98 219.68Q223.94 218.98 223.32 218.53Q222.71 218.07 221.73 218.07L220.67 218.07Q219.57 218.07 218.94 218.58Q218.32 219.08 218.32 219.94Q218.32 221.34 219.59 221.53LNaN 222.01Q226.36 222.49 226.36 225.94Q226.36 227.79 225.15 228.81Q223.94 229.83 221.73 229.83" fill="white" fill-opacity="0.7"/>
<path d="M250.12 229.64L247.96 229.64L247.96 220.21L244.12 220.21L244.12 218.24L247.96 218.24L247.96 215.48Q247.96 213.92 248.94 213.02Q249.93 212.12 251.66 212.12L255.52 212.12L255.52 214.09L251.66 214.09Q250.12 214.09 250.12 215.48L250.12 218.24L255.52 218.24L255.52 220.21L250.12 220.21" fill="white" fill-opacity="0.7"/>
<path d="M264.40 229.83Q262.02 229.83 260.62 228.44Q259.22 227.05 259.22 224.55L259.22 221.53Q259.22 219.01 260.61 217.63QNaN 216.25 264.40 216.25Q266.80 216.25 268.19 217.63Q269.58 219.01 269.58 221.53L269.58 224.55Q269.58 227.05 268.18 228.44Q266.78 229.83 264.40 229.83M264.40 227.91Q265.82 227.91 266.62 227.12Q267.42 226.33 267.42 224.79L267.42 221.29Q267.42 219.75 266.62 218.96Q265.82 218.17 264.40 218.17Q263.01 218.17 262.19 218.96Q261.38 219.75 261.38 221.29L261.38 224.79Q261.38 226.33 262.19 227.12Q263.01 227.91 264.40 227.91" fill="white" fill-opacity="0.7"/>
<path d="M276.45 229.64L274.29 229.64L274.29 216.44L276.45 216.44L276.45 218.96L276.50 218.96Q276.66 217.69 277.58 216.94Q278.49 216.20 280.02 216.20Q282.09 216.20 283.20 217.44Q284.32 218.67 284.32 220.95L284.32 222.08L282.16 222.08L282.16 220.95Q282.16 218.07 279.35 218.07Q277.94 218.07 277.19 218.89Q276.45 219.70 276.45 221.24" fill="white" fill-opacity="0.7"/>
<path d="M307.58 229.88Q305.30 229.88 303.93 228.52Q302.56 227.17 302.56 224.84L302.56 216.44L304.72 216.44L304.72 224.84Q304.72 226.28 305.49 227.13Q306.26 227.98 307.58 227.98Q308.92 227.98 309.70 227.13Q310.48 226.28 310.48 224.84L310.48 216.44L312.64 216.44L312.64 224.84Q312.64 227.17 311.25 228.52Q309.86 229.88 307.58 229.88" fill="white" fill-opacity="0.7"/>
<path d="M322.53 229.83L321.47 229.83Q319.26 229.83 318.05 228.84Q316.84 227.84 316.84 226.02L319 226.02Q319 226.93 319.65 227.44Q320.30 227.96 321.47 227.96L322.53 227.96Q323.73 227.96 324.39 227.43Q325.05 226.90 325.05 225.94Q325.05 224.24 323.49 224.02L319.84 223.50Q318.50 223.30 317.75 222.38Q317.01 221.46 317.01 219.94Q317.01 218.22 318.20 217.23Q319.38 216.25 321.47 216.25L322.53 216.25Q324.45 216.25 325.66 217.20Q326.87 218.14 326.97 219.68L324.78 219.68Q324.74 218.98 324.12 218.53Q323.51 218.07 322.53 218.07L321.47 218.07Q320.37 218.07 319.74 218.58Q319.12 219.08 319.12 219.94Q319.12 221.34 320.39 221.53L323.80 222.01Q327.16 222.49 327.16 225.94Q327.16 227.79 325.95 228.81Q324.74 229.83 322.53 229.83" fill="white" fill-opacity="0.7"/>
<path d="M336.40 229.88Q334.07 229.88 332.64 228.48Q331.22 227.07 331.22 224.60L331.22 221.48Q331.22 219.01 332.64 217.60Q334.07 216.20 336.40 216.20Q337.96 216.20 339.12 216.82Q340.29 217.45 340.94 218.58Q341.58 219.70 341.58 221.24L341.58 223.59L333.33 223.59L333.33 224.84Q333.33 226.30 334.17 227.16Q335.01 228.01 336.40 228.01Q337.60 228.01 338.38 227.54Q339.16 227.07 339.33 226.28L341.49 226.28Q341.27 227.94 339.88 228.91Q338.49 229.88 336.40 229.88M333.33 221.24L333.33 221.91L339.47 221.91L339.47 221.24Q339.47 219.68 338.67 218.83Q337.86 217.98 336.40 217.98Q334.94 217.98 334.13 218.83Q333.33 219.68 333.33 221.24" fill="white" fill-opacity="0.7"/>
<path d="M363.28 229.64L360.90 229.64L358.74 216.44L360.62 216.44L361.96 225.75Q362.03 226.28 362.10 226.92Q362.18 227.55 362.20 227.96Q362.25 227.55 362.31 226.92Q362.37 226.28 362.46 225.75L364.12 216.44L366.28 216.44L367.94 225.75Q368.03 226.28 368.12 226.92Q368.20 227.55 368.22 227.96Q368.27 227.55 368.34 226.92Q368.42 226.28 368.49 225.75L369.88 216.44L371.66 216.44L369.40 229.64L367.02 229.64L365.51 220.52Q365.42 219.85 365.33 219.09Q365.25 218.34 365.20 217.93Q365.18 218.34 365.08 219.09Q364.98 219.85 364.86 220.52" fill="white" fill-opacity="0.7"/>
<path d="M385.72 229.64L374.44 229.64L374.44 227.67L379.12 227.67L379.12 218.41L374.92 218.41L374.92 216.44L381.28 216.44L381.28 227.67L385.72 227.67L385.72 229.64M379.96 214.06Q379.17 214.06 378.71 213.66Q378.26 213.25 378.26 212.55Q378.26 211.83 378.71 211.41Q379.17 210.99 379.96 210.99Q380.75 210.99 381.21 211.41Q381.66 211.83 381.66 212.55Q381.66 213.25 381.21 213.66Q380.75 214.06 379.96 214.06" fill="white" fill-opacity="0.7"/>
<path d="M399.16 229.64L395.32 229.64Q393.69 229.64 392.70 228.69Q391.72 227.74 391.72 226.16L391.72 218.41L387.93 218.41L387.93 216.44L391.72 216.44L391.72 212.72L393.88 212.72L393.88 216.44L399.28 216.44L399.28 218.41L393.88 218.41L393.88 226.16Q393.88 226.83 394.28 227.25Q394.67 227.67 395.32 227.67L399.16 227.67" fill="white" fill-opacity="0.7"/>
<path d="M405.57 229.64L403.41 229.64L403.41 212.12L405.57 212.12L405.57 218.96L405.59 218.96Q405.76 217.64 406.67 216.92Q407.58 216.20 409.10 216.20Q411.09 216.20 412.26 217.42Q413.44 218.65 413.44 220.76L413.44 229.64L411.28 229.64L411.28 221.12Q411.28 219.63 410.52 218.83Q409.77 218.02 408.47 218.02Q407.13 218.02 406.35 218.86Q405.57 219.70 405.57 221.24" fill="white" fill-opacity="0.7"/>
<path d="M437.20 229.83Q434.82 229.83 433.42 228.44Q432.02 227.05 432.02 224.55L432.02 221.53Q432.02 219.01 433.41 217.63Q434.80 216.25 437.20 216.25Q439.60 216.25 440.99 217.63Q442.38 219.01 442.38 221.53L442.38 224.55Q442.38 227.05 440.98 228.44Q439.58 229.83 437.20 229.83M437.20 227.91Q438.62 227.91 439.42 227.12Q440.22 226.33 440.22 224.79L440.22 221.29Q440.22 219.75 439.42 218.96Q438.62 218.17 437.20 218.17Q435.81 218.17 434.99 218.96Q434.18 219.75 434.18 221.29L434.18 224.79Q434.18 226.33 434.99 227.12Q435.81 227.91 437.20 227.91" fill="white" fill-opacity="0.7"/>
<path d="M456.76 229.64L452.92 229.64Q451.29 229.64 450.30 228.69Q449.32 227.74 449.32 226.16L449.32 218.41L445.53 218.41L445.53 216.44L449.32 216.44L449.32 212.72L451.48 212.72L451.48 216.44L456.88 216.44L456.88 218.41L451.48 218.41L451.48 226.16Q451.48 226.83 451.88 227.25Q452.27 227.67 452.92 227.67L456.76 227.67" fill="white" fill-opacity="0.7"/>
<path d="M463.17 229.64L461.01 229.64L461.01 212.12L463.17 212.12L463.17 218.96L463.19 218.96Q463.36 217.64 464.27 216.92Q465.18 216.20 466.70 216.20Q468.69 216.20 469.86 217.42Q471.04 218.65 471.04 220.76L471.04 229.64L468.88 229.64L468.88 221.12Q468.88 219.63 468.12 218.83Q467.37 218.02 466.07 218.02Q464.73 218.02 463.95 218.86Q463.17 219.70 463.17 221.24" fill="white" fill-opacity="0.7"/>
<path d="M480.40 229.88Q478.07 229.88 476.64 228.48Q475.22 227.07 475.22 224.60L475.22 221.48Q475.22 219.01 476.64 217.60Q478.07 216.20 480.40 216.20Q481.96 216.20 483.12 216.82Q484.29 217.45 484.94 218.58Q485.58 219.70 485.58 221.24L485.58 223.59L477.33 223.59L477.33 224.84Q477.33 226.30 478.17 227.16Q479.01 228.01 480.40 228.01Q481.60 228.01 482.38 227.54Q483.16 227.07 483.33 226.28L485.49 226.28Q485.27 227.94 483.88 228.91Q482.49 229.88 480.40 229.88M477.33 221.24L477.33 221.91L483.47 221.91L483.47 221.24Q483.47 219.68 482.67 218.83Q481.86 217.98 480.40 217.98Q478.94 217.98 478.13 218.83Q477.33 219.68 477.33 221.24" fill="white" fill-opacity="0.7"/>
<path d="M492.45 229.64L490.29 229.64L490.29 216.44L492.45 216.44L492.45 218.96L492.50 218.96Q492.66 217.69 493.58 216.94Q494.49 216.20 496.02 216.20Q498.09 216.20 499.20 217.44Q500.32 218.67 500.32 220.95L500.32 222.08L498.16 222.08L498.16 220.95Q498.16 218.07 495.35 218.07Q493.94 218.07 493.19 218.89Q492.45 219.70 492.45 221.24" fill="white" fill-opacity="0.7"/>
<path d="M520.65 229.64L518.56 229.64L518.56 212.12L521.44 212.12L526.79 227.12Q526.74 226.52 526.68 225.64Q526.62 224.77 526.59 223.80Q526.55 222.82 526.55 221.96L526.55 212.12L528.64 212.12L528.64 229.64L525.76 229.64L520.43 214.64Q520.48 215.22 520.53 216.09Q520.58 216.97 520.61 217.94Q520.65 218.91 520.65 219.80" fill="white" fill-opacity="0.7"/>
<path d="M538 229.88Q535.67 229.88 534.24 228.48Q532.82 227.07 532.82 224.60L532.82 221.48Q532.82 219.01 534.24 217.60Q535.67 216.20 538 216.20Q539.56 216.20 540.72 216.82Q541.89 217.45 542.54 218.58Q543.18 219.70 543.18 221.24L543.18 223.59L534.93 223.59L534.93 224.84Q534.93 226.30 535.77 227.16Q536.61 228.01 538 228.01Q539.20 228.01 539.98 227.54Q540.76 227.07 540.93 226.28L543.09 226.28Q542.87 227.94 541.48 228.91Q540.09 229.88 538 229.88M534.93 221.24L534.93 221.91L541.07 221.91L541.07 221.24Q541.07 219.68 540.27 218.83Q539.46 217.98 538 217.98Q536.54 217.98 535.73 218.83Q534.93 219.68 534.93 221.24" fill="white" fill-opacity="0.7"/>
<path d="M548.94 229.64L546.40 229.64L551.08 222.85L546.69 216.44L549.23 216.44L551.85 220.52Q552.02 220.78 552.17 221.10Q552.33 221.41 552.42 221.60Q552.50 221.41 552.65 221.10Q552.81 220.78 552.98 220.52L555.59 216.44L558.14 216.44L553.74 222.87L558.40 229.64L555.86 229.64L553.02 225.32Q552.86 225.06 552.70 224.71Q552.54 224.36 552.42 224.14Q552.33 224.36 552.15 224.71Q551.97 225.06 551.78 225.32" fill="white" fill-opacity="0.7"/>
<path d="M563.06 229.64L561.04 229.64L561.04 216.44L562.91 216.44L562.91 218.19L562.96 218.19Q563.08 217.30 563.67 216.75Q564.26 216.20 565.17 216.20Q566.03 216.20 566.63 216.70Q567.23 217.21 567.50 218.07L567.52 218.07Q567.69 217.21 568.28 216.70Q568.86 216.20 569.78 216.20Q571.05 216.20 571.80 217.15Q572.56 218.10 572.56 219.61L572.56 229.64L570.54 229.64L570.54 219.58Q570.54 218.79 570.16 218.32Q569.78 217.86 569.10 217.86Q568.46 217.86 568.07 218.31Q567.69 218.77 567.69 219.56L567.69 229.64L565.91 229.64L565.91 219.58Q565.91 218.79 565.53 218.32Q565.14 217.86 564.50 217.86Q563.82 217.86 563.44 218.31Q563.06 218.77 563.06 219.56" fill="white" fill-opacity="0.7"/>
<path d="M581.20 229.83Q578.82 229.83 577.42 228.44Q576.02 227.05 576.02 224.55L576.02 221.53Q576.02 219.01 577.41 217.63Q578.80 216.25 581.20 216.25Q583.60 216.25 584.99 217.63Q586.38 219.01 586.38 221.53L586.38 224.55Q586.38 227.05 584.98 228.44Q583.58 229.83 581.20 229.83M581.20 227.91Q582.62 227.91 583.42 227.12Q584.22 226.33 584.22 224.79L584.22 221.29Q584.22 219.75 583.42 218.96Q582.62 218.17 581.20 218.17Q579.81 218.17 578.99 218.96Q578.18 219.75 578.18 221.29L578.18 224.79Q578.18 226.33 578.99 227.12Q579.81 227.91 581.20 227.91" fill="white" fill-opacity="0.7"/>
<path d="M606.21 229.64L604 229.64L608.56 212.12L611.46 212.12L616 229.64L613.82 229.64L612.66 224.98L607.36 224.98L606.21 229.64M609.14 217.74L607.79 223.16L612.21 223.16L610.86 217.76Q610.48 216.22 610.26 215.19Q610.05 214.16 610 213.85Q609.95 214.16 609.74 215.19Q609.52 216.22 609.14 217.74" fill="white" fill-opacity="0.7"/>
<path d="M621.57 229.64L619.41 229.64L619.41 212.12L625.05 212.12Q627.50 212.12 628.95 213.52Q630.40 214.93 630.40 217.28Q630.40 219.63 628.95 221.04Q627.50 222.44 625.05 222.44L621.57 222.44L621.57 229.64M621.57 214.06L621.57 220.50L625.05 220.50Q626.46 220.50 627.32 219.62Q628.17 218.74 628.17 217.28Q628.17 215.79 627.32 214.93Q626.46 214.06 625.05 214.06" fill="white" fill-opacity="0.7"/>
<path d="M643.48 229.64L634.12 229.64L634.12 227.67L637.70 227.67L637.70 214.09L634.12 214.09L634.12 212.12L643.48 212.12L643.48 214.09L639.90 214.09L639.90 227.67L643.48 227.67" fill="white" fill-opacity="0.7"/>
<path d="M653.73 229.83L652.67 229.83Q650.46 229.83 649.25 228.84Q648.04 227.84 648.04 226.02L650.20 226.02Q650.20 226.93 650.85 227.44Q651.50 227.96 652.67 227.96L653.73 227.96Q654.93 227.96 655.59 227.43Q656.25 226.90 656.25 225.94Q656.25 224.24 654.69 224.02L651.04 223.50Q649.70 223.30 648.95 222.38Q648.21 221.46 648.21 219.94Q648.21 218.22 649.40 217.23Q650.58 216.25 652.67 216.25L653.73 216.25Q655.65 216.25 656.86 217.20Q658.07 218.14 658.17 219.68L655.98 219.68Q655.94 218.98 655.32 218.53Q654.71 218.07 653.73 218.07L652.67 218.07Q651.57 218.07 650.94 218.58Q650.32 219.08 650.32 219.94Q650.32 221.34 651.59 221.53L655 222.01Q658.36 222.49 658.36 225.94Q658.36 227.79 657.15 228.81Q655.94 229.83 653.73 229.83" fill="white" fill-opacity="0.7"/>
<path d="M79.18 136.06L70.26 136.06L70.26 65.98L82.54 65.98L103.47 125.12Q103.18 122.62 102.94 118.92Q102.70 115.23 102.56 111.24Q102.42 107.26 102.42 103.71L102.42 65.98L111.44 65.98L111.44 136.06L99.06 136.06L78.32 76.92Q78.51 79.42 78.70 83.02Q78.90 86.62 79.04 90.56Q79.18 94.49 79.18 97.95L79.18 136.06M169.71 136.06L128.91 136.06L128.91 65.98L169.71 65.98L169.71 74.52L138.32 74.52L138.32 95.36L166.35 95.36L166.35 103.61L138.32 103.61L138.32 127.52L169.71 127.52L169.71 136.06M191.22 136.06L180.75 136.06L200.72 100.44L181.81 65.98L192.66 65.98L203.02 85.95Q203.89 87.68 204.80 89.50Q205.71 91.32 206.19 92.28Q206.67 91.32 207.54 89.50Q208.40 87.68 209.26 85.95L219.73 65.98L230.19 65.98L211.28 99.96L231.25 136.06L220.50 136.06L208.98 114.56Q208.11 112.83 207.25 110.96Q206.38 109.08 205.90 107.93Q205.42 109.08 204.56 110.96Q203.70 112.83 202.74 114.46L191.22 136.06M250.35 136.06L241.33 136.06L241.33 65.98L254.77 65.98L263.41 96.22L272.43 65.98L285.97 65.98L285.97 136.06L276.85 136.06L276.85 103.90Q276.85 98.81 277.04 92.62Q277.23 86.43 277.57 80.24Q277.90 74.04 278.29 69.05L267.34 104.96L259.28 104.96L248.72 69.92Q249.58 76.92 249.97 85.52Q250.35 94.11 250.35 103.90L250.35 136.06M321.20 137.02Q311.60 137.02 306.03 131.45Q300.46 125.88 300.46 115.71L300.46 86.24Q300.46 76.16 306.03 70.59Q311.60 65.02 321.20 65.02Q330.80 65.02 336.37 70.54Q341.94 76.06 341.94 86.24L341.94 115.71Q341.94 125.88 336.37 131.45Q330.80 137.02 321.20 137.02M321.20 128.57Q326.58 128.57 329.50 125.50Q332.43 122.43 332.43 116.67L332.43 85.28Q332.43 79.61 329.55 76.54Q326.67 73.47 321.20 73.47Q315.73 73.47 312.85 76.54Q309.97 79.61 309.97 85.28L309.97 116.67Q309.97 122.43 312.90 125.50Q315.82 128.57 321.20 128.57M423.15 136.06L414.13 136.06L414.13 65.98L427.57 65.98L436.21 96.22L445.23 65.98L458.77 65.98L458.77 136.06L449.65 136.06L449.65 103.90Q449.65 98.81 449.84 92.62Q450.03 86.43 450.37 80.24Q450.70 74.04 451.09 69.05L440.14 104.96L432.08 104.96L421.52 69.92Q422.38 76.92 422.77 85.52Q423.15 94.11 423.15 103.90L423.15 136.06M515.31 136.06L474.51 136.06L474.51 65.98L515.31 65.98L515.31 74.52L483.92 74.52L483.92 95.36L511.95 95.36L511.95 103.61L483.92 103.61L483.92 127.52L515.31 127.52L515.31 136.06M550.06 136.06L531.25 136.06L531.25 65.98L550.06 65.98Q556.88 65.98 561.92 68.62Q566.96 71.26 569.74 76.01Q572.53 80.76 572.53 87.20L572.53 114.75Q572.53 121.18 569.74 125.98Q566.96 130.78 561.92 133.42Q556.88 136.06 550.06 136.06M540.75 74.43L540.75 127.61L550.06 127.61Q556.11 127.61 559.57 124.16Q563.02 120.70 563.02 114.75L563.02 87.20Q563.02 81.24 559.57 77.84Q556.11 74.43 550.06 74.43L540.75 74.43M628.30 136.06L590.10 136.06L590.10 127.42L604.40 127.42L604.40 74.62L590.10 74.62L590.10 65.98L628.30 65.98L628.30 74.62LNaN 74.62LNaN 127.42L628.30 127.42L628.30 136.06M652.11 136.06L642.42 136.06L660.56 65.98L673.14 65.98L691.18 136.06L681.49 136.06L677.07 117.82L656.53 117.82L652.11 136.06M663.54 88.92L658.45 109.95L675.15 109.95L670.16 89.02Q668.72 83.26 667.86 79.23Q666.99 75.20 666.80 73.76Q666.61 75.20 665.74 79.23Q664.88 83.26 663.54 88.92" fill="url(#paint2_linear_0_1)"/>
<g id="Group 1">
<rect id="Rectangle 1" x="26" y="168" width="12" height="184" rx="5" fill="url(#paint3_linear_0_1)" fill-opacity="0.9"/>
</g>
<g id="Group 1_2">
<rect id="Rectangle 2" x="26" y="38" width="12" height="119" rx="5" fill="url(#paint4_linear_0_1)" fill-opacity="0.9"/>
</g>
<ellipse id="Ellipse 1" cx="148.5" cy="573" rx="215.5" ry="214" fill="url(#paint5_linear_0_1)" fill-opacity="0.4"/>
<rect id="Rectangle 3" x="1229" y="48" width="300" height="300" rx="25" fill="#FFFBFB" fill-opacity="0.9"/>
<g id="placeholder-logo"><g transform="translate(1229,48) translate(0.0,60.0) scale(1.2000)"><g fill="#666666">
  <path d="m88.05,27.65c-3.15,4 -3.2,51.2 -0.05,54.35c2.75,2.75 71.7,3.15 74.45,0.45c2.85,-2.9 2.3,-53.85 -0.65,-55.9c-1.95,-1.35 -7.15,-1.55 -36.95,-1.55l-34.7,0l-2.1,2.65zm69.45,3.35c0.65,0 1,8.6 1,23.75l0,23.75l-33,0l-33,0l-0.25,-23c-0.15,-12.6 -0.1,-23.45 0.15,-24.1c0.35,-0.85 8.9,-1.05 32.25,-0.75c17.55,0.2 32.3,0.35 32.85,0.35z"/>
  <path d="m99.15,37.3c-6.85,7.35 4.25,17.35 11.4,10.25c1.35,-1.35 2.45,-3.65 2.45,-5.05c0,-6.45 -9.35,-9.95 -13.85,-5.2z"/>
  <path d="m135,42.5c-0.7,0.85 -5.25,5.15 -10.1,9.6l-8.85,8.1l-3.2,-3.2l-3.15,-3.15l-6.35,6.3c-5.55,5.5 -6.35,6.75 -6.35,10.05l0,3.8l28.5,0l28.5,0l0,-8.6l0,-8.55l-8.15,-7.7c-9.35,-8.85 -9.15,-8.7 -10.85,-6.65zm7.25,15.2c0.95,0.9 1.75,2.9 1.75,4.45c6.35,-5.05 4.75,-7.15 4.9,-11.55c0.95,0 0,0 0,0l-6.65,7.1z"/>
  <path d="m53.65,110.75c0.1,4.8 0.45,8.65 0.75,8.5c0.35,-0.15 1.3,-0.25 2.1,-0.25c1.1,0 1.5,-1.2 1.5,-4.75l0,-4.75l3.25,5c4.9,7.5 6.2,6.75 6.55,-3.75c0.25,-8.15 0.15,-8.75 -1.7,-8.75c-1.65,0 -2.05,0.8 -2.3,4.75l-0.3,4.75l-2.8,-4.75c-4.85,-8.25 -7.25,-6.9 -7.05,4z"/>
  <path d="m91,108.9c0,9.65 0.3,10.1 6.1,10.1c5.8,0 7.15,-2.65 1.65,-3.2l-3.25,-0.3l-0.3,-6.75c-0.25,-5.95 -0.55,-6.75 -2.25,-6.75c-1.75,0 -1.95,0.7 -1.95,6.9z"/>
  <path d="m151,102.45c0,0.25 1,2.15 2.25,4.2c1.2,2.1 2.45,5.8 2.75,8.25c0.65,5.9 4,6.95 4,1.25c0.05,-2.1 1.25,-5.85 2.95,-8.9l2.9,-5.25l-2.5,0c-1.8,0 -2.8,0.85 -3.75,3.1l-1.3,3.05l-1.25,-3.05c-1.1,-2.6 -6.05,-4.8 -6.05,-2.65z"/>
  <path d="m191,107.45c0,9.05 3.4,8.85 4.25,-0.2c0.45,-5 0.35,-5.25 -1.9,-5.25c-2.2,0 -2.35,0.4 -2.35,5.45z"/>
  <path d="m180.8,104.75c-1.3,5.35 0.65,13.6 3.45,14.35c2.3,0.6 2.75,0.4 2.75,-1.2c0,-1.05 -0.45,-1.9 -1,-1.9c-0.55,0 -1,-1.6 -1,-3.5c0,-1.95 0.45,-3.5 1,-3.5c0.55,0 1,-0.7 1,-1.5c0,-0.85 -0.45,-1.5 -1,-1.5c-0.55,0 -1,-0.7 -1,-1.5c0,-2.1 -3.65,-1.9 -4.2,0.25z"/>
  <path d="m71.55,106.55c-2.2,2.25 -2.05,9.7 0.3,11.8c4.5,4.1 10.15,0.75 10.15,-6.1c0,-4.85 -2,-7.25 -6,-7.25c-1.55,0 -3.55,0.7 -4.45,1.55zm6.25,5.8c0.25,3.05 0,3.65 -1.6,3.65c-2.3,0 -3.25,-2.65 -2.05,-5.85c1.25,-3.35 3.3,-2.1 3.65,2.2z"/>
  <path d="m105.75,106.1c-2.5,1.45 -2.45,9.95 0.1,12.25c4.3,3.9 10.15,0.35 10.15,-6.2c0,-6 -5.15,-9.05 -10.25,-6.05zm6.05,6.25c0.25,3.05 0,3.65 -1.6,3.65c-2.3,0 -3.25,-2.65 -2.05,-5.85c1.25,-3.35 3.3,-2.1 3.65,2.2z"/>
  <path d="m119.2,106.2c-3.8,3.8 -0.4,12.55 4.4,11.35c1.9,-0.45 2.45,-0.3 2.15,0.65c-0.25,0.7 -1.55,1.2 -2.85,1.1c-4.05,-0.3 -5.35,0.45 -3.85,2.25c0.85,1.05 2.6,1.45 5.35,1.25l4.1,-0.3l0.3,-8.75l0.3,-8.75l-4.35,0c-2.4,0 -4.9,0.55 -5.55,1.2zm6.6,4.45c0.4,2.85 -2.15,4.85 -3.75,2.95c-0.9,-1.1 -0.9,-2 -0.05,-3.6c1.35,-2.5 3.4,-2.15 3.8,0.65z"/>
  <path d="m133.55,106.55c-2.2,2.25 -2.05,9.7 0.3,11.8c4.5,4.1 10.15,0.75 10.15,-6.1c0,-4.85 -2,-7.25 -6,-7.25c-1.55,0 -3.55,0.7 -4.45,1.55zm6.25,5.8c0.25,3.05 0,3.65 -1.6,3.65c-2.3,0 -3.25,-2.65 -2.05,-5.85c1.25,-3.35 3.3,-2.1 3.65,2.2z"/>
  <path d="m167.65,106.85c-3.9,4.3 -0.75,13.15 4.7,13.15c2.4,0 5.65,-2.75 5.65,-4.85c0,-1.4 -2.65,-1.55 -3.5,-0.15c-0.95,1.55 -4.5,1.15 -4.5,-0.5c0,-1.1 1.1,-1.5 4,-1.5c3.15,0 4,-0.35 4,-1.8c0,-5.3 -6.85,-8.25 -10.35,-4.35z"/>
  <path d="m191,117.5c0,2.15 0.4,2.6 2.25,2.3c1.5,-0.2 2.25,-1 2.25,-2.3c0,-1.3 -0.75,-2.1 -2.25,-2.3c-1.85,-0.3 -2.25,0.15 -2.25,2.3z"/>
 </g></g></g>
</g>
<defs>
<linearGradient id="paint0_linear_0_1" x1="0" y1="198" x2="1584" y2="198" gradientUnits="userSpaceOnUse">
<stop stop-color="#3D052C"/>
<stop offset="1"/>
</linearGradient>
<linearGradient id="paint1_linear_0_1" x1="323" y1="-224" x2="323" y2="352" gradientUnits="userSpaceOnUse">
<stop stop-color="#28F6F2" stop-opacity="0.4"/>
<stop offset="1" stop-color="#17908E" stop-opacity="0.7"/>
</linearGradient>
<linearGradient id="paint2_linear_0_1" x1="148.5" y1="38" x2="148.5" y2="140" gradientUnits="userSpaceOnUse">
<stop stop-color="white"/>
<stop offset="1" stop-color="#999999"/>
</linearGradient>
<linearGradient id="paint3_linear_0_1" x1="38" y1="260" x2="26" y2="260" gradientUnits="userSpaceOnUse">
<stop stop-color="#D9D9D9"/>
<stop offset="1" stop-color="#737373"/>
</linearGradient>
<linearGradient id="paint4_linear_0_1" x1="38" y1="97.5" x2="26" y2="97.5" gradientUnits="userSpaceOnUse">
<stop stop-color="#D9D9D9"/>
<stop offset="1" stop-color="#737373"/>
</linearGradient>
<linearGradient id="paint5_linear_0_1" x1="27.5" y1="434.5" x2="148.5" y2="787" gradientUnits="userSpaceOnUse">
<stop stop-color="#2E21BC"/>
<stop offset="1" stop-color="#150F56"/>
</linearGradient>
<clipPath id="clip0_0_1">
<rect width="1584" height="396" fill="white"/>
</clipPath>
</defs>
</svg>
